GIL02_slow1_RRA_states
nRows=4
nColumns=47

# SIMM Motion File Header:
name GIL02_slow1_RRA_states
datacolumns 47
datarows 4
otherdata 1
range 0.47133000000000025000 0.47283000000000025000
endheader
time	pelvis_tx	pelvis_ty	pelvis_tz	pelvis_tilt	pelvis_list	pelvis_rotation	hip_flexion_r	hip_adduction_r	hip_rotation_r	knee_angle_r	ankle_angle_r	subtalar_angle_r	mtp_angle_r	hip_flexion_l	hip_adduction_l	hip_rotation_l	knee_angle_l	ankle_angle_l	subtalar_angle_l	mtp_angle_l	lumbar_extension	lumbar_bending	lumbar_rotation	pelvis_tx_u	pelvis_ty_u	pelvis_tz_u	pelvis_tilt_u	pelvis_list_u	pelvis_rotation_u	hip_flexion_r_u	hip_adduction_r_u	hip_rotation_r_u	knee_angle_r_u	ankle_angle_r_u	subtalar_angle_r_u	mtp_angle_r_u	hip_flexion_l_u	hip_adduction_l_u	hip_rotation_l_u	knee_angle_l_u	ankle_angle_l_u	subtalar_angle_l_u	mtp_angle_l_u	lumbar_extension_u	lumbar_bending_u	lumbar_rotation_u
      0.47133000000000025000	      0.90528161456820488000	      0.95295517851880174000	     -0.19319165266096383000	      1.44149840191969150000	      2.96490818562525500000	      2.17607974749962100000	     -5.35677317905941310000	     -0.37520877781529660000	     10.99224016460142600000	     -6.10524383575557920000	     10.40845757351897300000	      0.00000000000004337148	      0.00000000000008350051	     20.89955839685409000000	      2.75735315407336530000	     -0.14132951120205442000	    -29.01385478062806200000	      2.82975276742607030000	     -0.00000000000000140585	     -0.00000000000000602601	     -4.79976755690083580000	     -0.33260349111264553000	      4.91318462895033030000	      0.64380218169863401000	     -0.09451289757153220900	      0.00683391378848674600	    -12.06658439602018400000	      4.55599801117456060000	     -9.61747371098042510000	    -43.99568135674596900000	     -7.56516001509679550000	     20.07376816683084500000	     24.15889670796562100000	     27.91629573330094900000	      0.00000000000029521627	     -0.00000000000027768352	     34.46131373297589600000	     12.92343755067523300000	      1.58090375234011500000	    242.62434727965709000000	    -66.51714641116490200000	     -0.00000000000001013111	     -0.00000000000001657086	     15.21372632506767700000	     -5.99913061060592230000	     17.65487411344828300000
      0.47183000000000025000	      0.90560356662961050000	      0.95290782789424833000	     -0.19318818140244867000	      1.43546089900056370000	      2.96715276583312980000	      2.17124746385860770000	     -5.37875894228455480000	     -0.37895609119627205000	     11.00228842621739000000	     -6.09317389016220550000	     10.42240289023093200000	      0.00000000000004352049	      0.00000000000008334427	     20.91671487802461400000	      2.76375439796529280000	     -0.14057127863758259000	    -28.89246398924627700000	      2.79626989303551590000	     -0.00000000000000141034	     -0.00000000000000603458	     -4.79215072581099300000	     -0.33558354213287367000	      4.92204630507531250000	      0.64400623674239188000	     -0.09488889362539998400	      0.00705132278970765910	    -12.08301223557406900000	      4.42236687032458510000	     -9.71163649915786030000	    -43.94772811862915100000	     -7.42409471643127090000	     20.11906060366046100000	     24.12059608297806400000	     27.86535010008113000000	      0.00000000000031112152	     -0.00000000000033092942	     34.16416952215907800000	     12.68150663233577400000	      1.45162189062113200000	    242.93828207130466000000	    -67.41347999406343700000	     -0.00000000000000690354	     -0.00000000000001780667	     15.25306811326705500000	     -5.92113892964301680000	     17.79158961163176000000
      0.47233000000000025000	      0.90592562097698426000	      0.95286029033158492000	     -0.19318460113702643000	      1.42941580406726890000	      2.96933059533879180000	      2.16636813654614670000	     -5.40072126283972050000	     -0.38263287197738927000	     11.01235900498648800000	     -6.08112352972382730000	     10.43632329100873500000	      0.00000000000004367149	      0.00000000000008318608	     20.93372212690079000000	      2.77003462936456790000	     -0.13987829285877668000	    -28.77091703714785700000	      2.76234016199037850000	     -0.00000000000000141374	     -0.00000000000000604337	     -4.78451501803534200000	     -0.33852469422185016000	      4.93097597670478030000	      0.64421132375903289000	     -0.09526065073501696600	      0.00726993840748425480	    -12.09695374406931900000	      4.28899293814562110000	     -9.80564589004859850000	    -43.90190891803194300000	     -7.28302623782500900000	     20.16303166991201600000	     24.08055516293325100000	     27.81660903351924900000	      0.00000000000029984104	     -0.00000000000025967309	     33.86438881212738700000	     12.43938795307509100000	      1.31991892191599720000	    243.24898492507822000000	    -68.30456510764804500000	     -0.00000000000000584254	     -0.00000000000001792558	     15.28923435326461800000	     -5.84353240558450790000	     17.92685379308391400000
      0.47283000000000025000	      0.90624777812372670000	      0.95281256794661884000	     -0.19318091127598505000	      1.42336435722903220000	      2.97144180434186510000	      2.16144184274004610000	     -5.42266120384659440000	     -0.38623912202059685000	     11.02245123716787000000	     -6.06909362612110130000	     10.45021987076477600000	      0.00000000000004382840	      0.00000000000008305825	     20.95057883341712200000	      2.77619376071041430000	     -0.13925176634467434000	    -28.64921555367227400000	      2.72796621845335400000	     -0.00000000000000141629	     -0.00000000000000605237	     -4.77686201840672010000	     -0.34142713804256958000	      4.93997291029025210000	      0.64441743266587748000	     -0.09562818872592823700	      0.00748968210297531850	    -12.10842339067191500000	      4.15589257957155220000	     -9.89950653693616540000	    -43.85820564068595900000	     -7.14198542835066070000	     20.20567837189772900000	     24.03876752644268000000	     27.77009719659604400000	      0.00000000000030238581	     -0.00000000000025721210	     33.56200795147851300000	     12.19711830413797000000	      1.18577633046614170000	    243.55639126948128000000	    -69.19030591850079800000	     -0.00000000000000506962	     -0.00000000000001852014	     15.32223884485172900000	     -5.76630698608964480000	     18.06062634319944500000
